<?xml version="1.0" encoding="utf-8"?>
<!-- Generator: Adobe Illustrator 17.0.0, SVG Export Plug-In . SVG Version: 6.00 Build 0)  -->
<!DOCTYPE svg PUBLIC "-//W3C//DTD SVG 1.1//EN" "http://www.w3.org/Graphics/SVG/1.1/DTD/svg11.dtd">
<svg version="1.1" id="Layer_1" xmlns="http://www.w3.org/2000/svg" xmlns:xlink="http://www.w3.org/1999/xlink" x="0px" y="0px"
	 width="100px" height="100px" viewBox="0 0 100 100" enable-background="new 0 0 100 100" xml:space="preserve">
<g>
	<g>
		<path d="M63.672,13.109H35.554c-0.145,0-0.286,0.029-0.416,0.084c-0.132,0.055-0.25,0.134-0.349,0.234l-8.651,8.651
			c-0.099,0.099-0.178,0.217-0.234,0.349c-0.054,0.13-0.083,0.27-0.083,0.415v47.585c0,0.598,0.485,1.081,1.081,1.081h36.771
			c0.598,0,1.081-0.483,1.081-1.081V14.19C64.754,13.593,64.27,13.109,63.672,13.109z M29.513,21.761l4.96-4.96v4.96H29.513z
			 M62.591,69.346H27.983V23.924h7.57c0.597,0,1.081-0.485,1.081-1.081v-7.57h25.956V69.346z"/>
		<path d="M42.043,21.761h15.141c0.598,0,1.081-0.485,1.081-1.081s-0.483-1.081-1.081-1.081H42.043
			c-0.597,0-1.081,0.485-1.081,1.081S41.446,21.761,42.043,21.761z"/>
		<path d="M57.183,26.087H42.043c-0.597,0-1.081,0.485-1.081,1.081s0.485,1.081,1.081,1.081h15.141c0.598,0,1.081-0.485,1.081-1.081
			S57.782,26.087,57.183,26.087z"/>
		<path d="M57.183,32.576H33.391c-0.597,0-1.081,0.485-1.081,1.081c0,0.597,0.485,1.081,1.081,1.081h23.793
			c0.598,0,1.081-0.485,1.081-1.081C58.265,33.06,57.782,32.576,57.183,32.576z"/>
		<path d="M57.183,39.065H33.391c-0.597,0-1.081,0.485-1.081,1.081s0.485,1.081,1.081,1.081h23.793c0.598,0,1.081-0.485,1.081-1.081
			S57.782,39.065,57.183,39.065z"/>
		<path d="M57.183,45.553H33.391c-0.597,0-1.081,0.483-1.081,1.081c0,0.598,0.485,1.081,1.081,1.081h23.793
			c0.598,0,1.081-0.483,1.081-1.081C58.265,46.037,57.782,45.553,57.183,45.553z"/>
		<path d="M57.183,52.042H33.391c-0.597,0-1.081,0.483-1.081,1.081c0,0.598,0.485,1.081,1.081,1.081h23.793
			c0.598,0,1.081-0.483,1.081-1.081C58.265,52.526,57.782,52.042,57.183,52.042z"/>
		<path d="M57.183,58.531H33.391c-0.597,0-1.081,0.483-1.081,1.081c0,0.598,0.485,1.081,1.081,1.081h23.793
			c0.598,0,1.081-0.483,1.081-1.081C58.265,59.015,57.782,58.531,57.183,58.531z"/>
		<path d="M78.813,23.924h-3.244v-3.244c0-0.597-0.483-1.081-1.081-1.081h-4.326c-0.598,0-1.081,0.485-1.081,1.081V57.45
			c0,0.063,0.025,0.116,0.036,0.175c0.009,0.056,0.002,0.112,0.021,0.167l2.107,6.321v1.989c0,0.598,0.483,1.081,1.081,1.081
			s1.081-0.483,1.081-1.081v-1.989l2.107-6.321c0.018-0.055,0.012-0.111,0.021-0.165c0.011-0.061,0.036-0.114,0.036-0.176V26.087
			h2.163v7.57c0,0.597,0.483,1.081,1.081,1.081s1.081-0.485,1.081-1.081v-8.652C79.895,24.408,79.411,23.924,78.813,23.924z
			 M73.406,21.761v2.163h-2.163v-2.163H73.406z M72.324,60.52l-0.663-1.989h1.327L72.324,60.52z M73.406,56.368h-2.163V26.087h2.163
			V56.368z"/>
	</g>
</g>
</svg>
