<svg xmlns="http://www.w3.org/2000/svg" xmlns:xlink="http://www.w3.org/1999/xlink" version="1.1" viewBox="0 0 96 120" x="0px" y="0px"><path d="M54.172 69.864c-1.216-0.088-2.412-0.020-3.648-0.068-21.96-0.764-35.452-10.116-45.752-19.164-4.156-3.648-5.788-8.084-4.36-11.872 1.92-5.096 8.968-6.788 15.252-3.204 10.284 5.872 23.3 6.468 34.952 1.404 17.924-7.776 31.012-5.032 34.24 6.808 1.868 6.852 1.132 12.524-2.18 16.856-4.684 6.128-14.276 9.24-28.504 9.24zM8.668 37.544c-2.172 0-3.904 1.008-4.516 2.632-0.816 2.164 0.404 4.944 3.26 7.452 9.768 8.584 22.544 17.448 43.252 18.172 1.196 0.044 2.368 0.068 3.508 0.068v0c12.736 0 21.492-2.652 25.32-7.664 2.516-3.292 3.016-7.792 1.5-13.376-1.508-5.552-5.6-8.364-12.164-8.364-4.648 0-10.244 1.408-16.616 4.172-12.808 5.56-27.168 4.892-38.532-1.596-1.712-0.98-3.444-1.496-5.012-1.496z" fill="#000000"/><path d="M75.916 45.968c-0.976 0-1.828-0.72-1.976-1.716-0.156-1.088 0.6-2.104 1.704-2.26 5.14-0.752 6.256-3.636 7.68-7.296 1.46-3.812 3.288-8.56 10.772-8.56 1.1 0 2 0.896 2 2 0 1.1-0.9 2-2 2-4.744 0-5.664 2.384-7.056 5.996-1.5 3.892-3.368 8.736-10.836 9.812-0.104 0.016-0.188 0.024-0.288 0.024z" fill="#000000"/><path d="M75.124 65.796c-0.436 0-0.892-0.144-1.256-0.444-0.852-0.696-0.984-1.956-0.288-2.812 0.752-0.916 1.42-2.272 0.408-3.536-1.368-1.676-4.92-2.396-8.82-0.416-0.904 0.456-1.984 0.168-2.556-0.66-0.564-0.828-0.428-1.948 0.32-2.616 2.836-2.536 3.048-5.020 2.368-6.376-0.724-1.436-2.46-2.040-4.64-1.584-0.944 0.184-1.896-0.324-2.252-1.224-0.36-0.9-0.024-1.92 0.796-2.432 2.544-1.592 2.696-3.608 2.056-4.856-0.256-0.496-0.9-1.248-1.64-0.936-1.012 0.42-2.192-0.064-2.608-1.084-0.42-1.024 0.064-2.192 1.084-2.608 2.524-1.044 5.352 0.136 6.732 2.796 0.952 1.856 1.1 4.332-0.124 6.62 1.836 0.592 3.328 1.804 4.18 3.516 0.968 1.92 0.992 4.128 0.188 6.28 3.524-0.252 6.444 1.1 8.040 3.072 2.016 2.496 1.86 5.78-0.408 8.572-0.424 0.48-0.992 0.728-1.58 0.728z" fill="#000000"/><text x="0" y="111" fill="#000000" font-size="5px" font-weight="bold" font-family="'Helvetica Neue', Helvetica, Arial-Unicode, Arial, Sans-serif">Created by iconsmind.com</text><text x="0" y="116" fill="#000000" font-size="5px" font-weight="bold" font-family="'Helvetica Neue', Helvetica, Arial-Unicode, Arial, Sans-serif">from the Noun Project</text></svg>