<svg xmlns="http://www.w3.org/2000/svg" xmlns:xlink="http://www.w3.org/1999/xlink" version="1.1" x="0px" y="0px" viewBox="0 0 100 125" enable-background="new 0 0 100 100" xml:space="preserve"><g><g><path d="M-3173.395,76.667c-0.852,0-1.641-0.548-1.909-1.404c-0.329-1.054,0.258-2.176,1.313-2.505l18.167-5.675    c1.055-0.329,2.176,0.259,2.505,1.313c0.329,1.054-0.258,2.176-1.313,2.505l-18.167,5.675    C-3172.997,76.638-3173.198,76.667-3173.395,76.667z"/></g><g><path d="M-3195.593,76.667c-0.197,0-0.398-0.029-0.597-0.091l-18.167-5.675c-1.055-0.33-1.642-1.451-1.313-2.505    c0.33-1.055,1.451-1.645,2.505-1.313l18.167,5.675c1.055,0.33,1.642,1.451,1.313,2.505    C-3193.952,76.119-3194.741,76.667-3195.593,76.667z"/></g></g><g><g><path d="M-3173.395,65.19c-0.852,0-1.641-0.548-1.909-1.404c-0.329-1.054,0.259-2.176,1.313-2.505l18.167-5.674    c1.055-0.33,2.176,0.259,2.505,1.313c0.329,1.054-0.259,2.176-1.313,2.505l-18.167,5.674    C-3172.997,65.161-3173.198,65.19-3173.395,65.19z"/></g><g><path d="M-3195.593,65.19c-0.197,0-0.398-0.029-0.597-0.091l-18.167-5.674c-1.054-0.33-1.642-1.451-1.313-2.505    c0.33-1.055,1.451-1.643,2.505-1.313l18.167,5.674c1.054,0.33,1.642,1.451,1.313,2.505    C-3193.952,64.642-3194.741,65.19-3195.593,65.19z"/></g></g><g><g><path d="M-3173.395,53.713c-0.852,0-1.641-0.548-1.909-1.404c-0.329-1.054,0.259-2.176,1.313-2.505l18.167-5.674    c1.055-0.331,2.176,0.259,2.505,1.313c0.329,1.054-0.259,2.176-1.313,2.505l-18.167,5.674    C-3172.997,53.684-3173.198,53.713-3173.395,53.713z"/></g><g><path d="M-3195.593,53.713c-0.197,0-0.398-0.029-0.597-0.091l-18.167-5.674c-1.054-0.33-1.642-1.451-1.313-2.505    c0.33-1.055,1.451-1.644,2.505-1.313l18.167,5.674c1.054,0.33,1.642,1.451,1.313,2.505    C-3193.952,53.165-3194.741,53.713-3195.593,53.713z"/></g></g><g><g><path d="M-3173.395,42.237c-0.852,0-1.641-0.548-1.909-1.404c-0.329-1.054,0.258-2.176,1.313-2.505l18.167-5.675    c1.055-0.331,2.176,0.259,2.505,1.313c0.329,1.054-0.258,2.176-1.313,2.505l-18.167,5.675    C-3172.997,42.208-3173.198,42.237-3173.395,42.237z"/></g><g><path d="M-3195.593,42.237c-0.197,0-0.398-0.029-0.597-0.091l-18.167-5.675c-1.055-0.33-1.642-1.451-1.313-2.505    c0.33-1.054,1.451-1.644,2.505-1.313l18.167,5.675c1.055,0.33,1.642,1.451,1.313,2.505    C-3193.952,41.688-3194.741,42.237-3195.593,42.237z"/></g></g><g><path d="M-3141.89,9.99c-0.77-0.57-1.76-0.73-2.67-0.45l-39.57,12.36l-39.57-12.36c-0.91-0.28-1.9-0.12-2.67,0.45   c-0.77,0.56-1.22,1.46-1.22,2.41v69.8c0,1.32,0.85,2.48,2.1,2.87l40.47,12.64c0.06,0.02,0.11,0.03,0.17,0.04   c0.06,0.02,0.12,0.03,0.18,0.04c0.08,0.01,0.15,0.03,0.22,0.03c0.11,0.01,0.21,0.02,0.32,0.02s0.21-0.01,0.32-0.02   c0.07,0,0.15-0.02,0.23-0.03c0.05-0.01,0.1-0.02,0.15-0.03c0.07-0.01,0.13-0.03,0.2-0.05l40.46-12.64c1.25-0.39,2.1-1.55,2.1-2.87   V12.4C-3140.67,11.45-3141.12,10.55-3141.89,9.99z M-3221.59,16.48l34.46,10.77v63.51L-3221.59,80V16.48z M-3146.67,80   l-34.46,10.76V27.25l34.46-10.77V80z"/></g><g><path d="M56.8,20.723c-0.1-0.05-0.21-0.08-0.31-0.12c0.06,0.01,0.12,0.03,0.18,0.05C56.72,20.673,56.76,20.693,56.8,20.723z"/></g><g><path d="M93.751,28.687H79.332c-0.26,0-0.5,0.07-0.709,0.21l-6.115,4.187c-1.719-2.338-3.717-4.477-5.935-6.355l13.36-16.857   h13.819C94.44,9.871,95,9.312,95,8.622c0-0.689-0.56-1.249-1.249-1.249H79.332c-0.39,0-0.749,0.18-0.979,0.48L64.624,25.179   c-2.388-1.779-5.006-3.277-7.784-4.437c-0.01-0.01-0.02-0.02-0.04-0.02c-0.1-0.05-0.21-0.08-0.31-0.12   c-0.02-0.01-0.03-0.01-0.05-0.02c-2.398-0.979-4.916-1.719-7.534-2.168c-0.03-0.02-0.07-0.02-0.1-0.03c-0.02,0-0.05-0.01-0.07-0.01   c-2.058-0.36-4.187-0.54-6.345-0.54C21.777,17.835,5,34.612,5,55.226C5,75.85,21.777,92.627,42.391,92.627   c16.587,0,30.696-10.852,35.562-25.84c0.01-0.02,0.02-0.03,0.02-0.05c0.02-0.02,0.02-0.04,0.03-0.07c0.01-0.02,0.02-0.05,0.03-0.07   c0.01-0.03,0.02-0.05,0.02-0.08c0.01-0.01,0.01-0.03,0.01-0.04c1.119-3.547,1.729-7.334,1.729-11.251   c0-2.298-0.21-4.556-0.62-6.745v-0.04c0-0.03-0.01-0.05-0.02-0.08c-0.889-4.786-2.688-9.253-5.226-13.21l5.785-3.967h14.039   c0.689,0,1.249-0.56,1.249-1.249C95,29.236,94.44,28.687,93.751,28.687z M65.023,28.687c2.018,1.719,3.847,3.677,5.426,5.815   l-6.955,4.766c-1.099-1.449-2.338-2.778-3.707-3.967L65.023,28.687z M56.86,23.481c2.198,0.999,4.277,2.228,6.205,3.657   l-5.236,6.605c-1.309-0.949-2.708-1.779-4.187-2.468L56.86,23.481z M49.605,21.083c1.699,0.36,3.347,0.839,4.946,1.439   l-3.227,7.794c-1.029-0.38-2.088-0.689-3.168-0.919L49.605,21.083z M43.64,20.363c1.189,0.03,2.348,0.14,3.497,0.29l-1.439,8.323   c-0.679-0.1-1.359-0.16-2.058-0.19V20.363z M46.508,31.614c1.749,0.3,3.437,0.789,5.036,1.459   c7.404,3.068,12.94,9.732,14.429,17.806c0.25,1.409,0.39,2.858,0.39,4.347c0,13.22-10.752,23.971-23.971,23.971   c-13.21,0-23.961-10.752-23.961-23.971s10.752-23.971,23.961-23.971C43.79,31.255,45.169,31.375,46.508,31.614z M42.391,90.129   c-19.235,0-34.893-15.658-34.893-34.903c0-18.825,14.988-34.213,33.644-34.863v8.423c-14.009,0.66-25.21,12.27-25.21,26.439   c0,14.599,11.871,26.469,26.459,26.469c11.351,0,21.064-7.184,24.811-17.247l8.044,2.568   C70.399,80.476,57.499,90.129,42.391,90.129z M77.294,55.226c0,3.257-0.45,6.415-1.289,9.403l-8.054-2.568   c0.6-2.178,0.909-4.477,0.909-6.835c0-1.209-0.08-2.398-0.25-3.567l8.314-1.539C77.164,51.789,77.294,53.487,77.294,55.226z    M76.464,47.662l-8.304,1.539c-0.65-2.828-1.769-5.476-3.257-7.874l6.965-4.766C74.006,39.918,75.575,43.665,76.464,47.662z"/></g><text x="0" y="115" fill="#000000" font-size="5px" font-weight="bold" font-family="'Helvetica Neue', Helvetica, Arial-Unicode, Arial, Sans-serif">Created by Garrett Knoll</text><text x="0" y="120" fill="#000000" font-size="5px" font-weight="bold" font-family="'Helvetica Neue', Helvetica, Arial-Unicode, Arial, Sans-serif">from the Noun Project</text></svg>