<svg xmlns="http://www.w3.org/2000/svg" xmlns:xlink="http://www.w3.org/1999/xlink" version="1.1" x="0px" y="0px" viewBox="0 0 100 125" enable-background="new 0 0 100 100" xml:space="preserve"><path d="M35.518,57.146H64.67c1.764,0,3.197-1.434,3.197-3.197V32.886c0-1.764-1.434-3.197-3.197-3.197H35.518  c-1.763,0-3.197,1.434-3.197,3.197v21.063C32.321,55.713,33.755,57.146,35.518,57.146z M64.67,55.643H35.518  c-0.934,0-1.692-0.76-1.692-1.693V37.022h32.537v16.927C66.363,54.883,65.604,55.643,64.67,55.643z M35.518,31.192H64.67  c0.934,0,1.693,0.76,1.693,1.693v2.633H33.826v-2.633C33.826,31.952,34.584,31.192,35.518,31.192z"/><rect x="49.812" y="32.886" width="14.106" height="1.504"/><circle cx="36.349" cy="33.638" r="0.752"/><circle cx="38.794" cy="33.638" r="0.752"/><circle cx="41.427" cy="33.638" r="0.752"/><polygon points="45.516,42.845 44.451,41.781 40.089,46.145 44.75,50.806 45.813,49.742 42.216,46.145 "/><polygon points="54.469,42.845 57.768,46.145 54.171,49.742 55.235,50.806 59.896,46.145 55.533,41.781 "/><rect x="49.428" y="40.936" transform="matrix(-0.8542 -0.5199 0.5199 -0.8542 68.9759 111.928)" width="1.504" height="10.714"/><path d="M77.769,24.798H22.231c-1.178,0-2.136,0.958-2.136,2.137v39.737c0,1.178,0.958,2.136,2.136,2.136h20.058v4.89h-3.95v1.505  h22.193v-1.505h-2.633v-4.89h19.869c1.178,0,2.136-0.958,2.136-2.136V26.935C79.904,25.756,78.946,24.798,77.769,24.798z   M22.231,26.303h55.537c0.348,0,0.631,0.283,0.631,0.632v33.222H21.601V26.935C21.601,26.586,21.884,26.303,22.231,26.303z   M56.395,73.697H43.794v-4.89h12.601V73.697z M77.769,67.303H22.231c-0.348,0-0.631-0.283-0.631-0.631V61.66H78.4v5.012  C78.4,67.02,78.116,67.303,77.769,67.303z"/><text x="0" y="115" fill="#000000" font-size="5px" font-weight="bold" font-family="'Helvetica Neue', Helvetica, Arial-Unicode, Arial, Sans-serif">Created by YuguDesign </text><text x="0" y="120" fill="#000000" font-size="5px" font-weight="bold" font-family="'Helvetica Neue', Helvetica, Arial-Unicode, Arial, Sans-serif">from the Noun Project</text></svg>