<svg xmlns="http://www.w3.org/2000/svg" xmlns:xlink="http://www.w3.org/1999/xlink" version="1.1" x="0px" y="0px" viewBox="0 0 612 990" enable-background="new 0 0 612 792" xml:space="preserve"><path d="M313.4,102c55.5,1.3,108.2,20.7,149.3,65.7c44.6,48.7,55.1,105.9,38.1,168.8c-10,36.9-27.9,70.1-47.2,102.8  c-11.9,20-23.8,40.1-35.3,60.3c-10.7,18.8-16.5,38.7-15.3,60.8c1.1,19.3-0.1,38.8,0.3,58.2c0.2,11.1-3.4,20.5-10.7,28.4  c-21.3,23-47.9,36.5-78.5,42c-5.7,1-12.1,0.2-17.8-1.3c-24.3-6.1-46.2-17.2-64.8-34.2c-11.3-10.3-17.6-22.4-16.9-38.4  c0.9-20.3-0.2-40.6,0.3-60.9c0.4-15.2-2.5-29.5-9.5-42.7c-9.3-17.5-18.9-34.9-29-51.9c-19.4-32.7-39.3-65.2-52.3-101.2  c-14.8-40.9-20.9-82.5-7-124.7c20.7-62.7,65.4-101.1,126.8-121.5C265,105,286.8,102.3,313.4,102z M309,471.2  c1.8-3.4,3.1-5.6,4.2-7.8c14.7-29.3,39.3-108.6,54-137.9c0.8-1.6,1.3-3.9,2.7-4.7c2.1-1.3,5.3-2.8,7-1.9c1.7,0.8,2.8,4.3,2.9,6.7  c0,2.1-1.7,4.2-2.7,6.2c-16.4,32.8-42.8,115.6-59.2,148.4c-1,2.1-2.6,4.2-2.6,6.3c-0.2,15.6-0.1,31.2-0.1,47.5  c21.6,0,42.4,0.1,63.1-0.2c1.5,0,3.5-2.3,4.2-3.9c6.1-14.6,11-29.9,18.1-44c8.9-17.4,19.5-34,29.6-50.8  c19.5-32.5,38.1-65.4,48.6-102.1c21.2-73.8-4.9-141.8-70.5-181.1c-45.9-27.5-95.5-34.1-147.4-21.2c-33.9,8.5-63.6,24.9-87.4,50.7  C129.8,228.5,123,283,142.5,342.4c11.7,35.8,31.2,67.7,50,100c13.4,23.1,25.7,46.9,38,70.6c3.4,6.5,3.3,16.7,8.3,20.1  c5.3,3.5,14.7,0.9,22.3,0.9c13.8,0,27.6,0,42.2,0c0-14.1,0.3-27.4-0.1-40.8c-0.1-4.6-1.2-9.6-3.2-13.8  c-16.1-32.7-42.5-115.2-58.8-147.8c-1-2.1-2.8-4.2-2.7-6.3c0.1-2.4,1.3-5.5,3.1-6.7c1.3-0.9,4.7,0.4,6.5,1.7  c1.5,1.1,2.1,3.5,3.1,5.3C266.9,357,292.6,438.4,309,471.2z M380.6,567.4c0-7.2,0-14.4,0-21.6c-47.9,0-95.5,0-143.1,0  c0,7.5,0,14.5,0,21.6C285.4,567.4,332.7,567.4,380.6,567.4z M237,600.3c48.6,0,96.2,0,143.7,0c0-7.5,0-14.5,0-21.4  c-48.1,0-95.5,0-143.4,0c-0.1,1.4-0.3,2.5-0.3,3.6C237,588.3,237,594.1,237,600.3z M237,612.1c0,3,0,5.3,0,7.6  c0.2,10.1,4.6,14.4,14.7,14.4c38.8,0,77.6,0,116.4,0c7.6,0,12.4-4.1,13.1-11.7c0.3-3.3,0.1-6.7,0.1-10.3  C332.8,612.1,285.3,612.1,237,612.1z M257.5,645.5c33.9,26.7,78.9,26.4,102,0C325.8,645.5,292.3,645.5,257.5,645.5z"/><text x="0" y="807" fill="#000000" font-size="5px" font-weight="bold" font-family="'Helvetica Neue', Helvetica, Arial-Unicode, Arial, Sans-serif">Created by gayatri</text><text x="0" y="812" fill="#000000" font-size="5px" font-weight="bold" font-family="'Helvetica Neue', Helvetica, Arial-Unicode, Arial, Sans-serif">from the Noun Project</text></svg>