<?xml version="1.0" encoding="utf-8"?>
<!-- Generator: Adobe Illustrator 17.0.0, SVG Export Plug-In . SVG Version: 6.00 Build 0)  -->
<!DOCTYPE svg PUBLIC "-//W3C//DTD SVG 1.1//EN" "http://www.w3.org/Graphics/SVG/1.1/DTD/svg11.dtd">
<svg version="1.1" id="Capa_1" xmlns="http://www.w3.org/2000/svg" xmlns:xlink="http://www.w3.org/1999/xlink" x="0px" y="0px"
	 width="430.113px" height="430.114px" viewBox="0 0 430.113 430.114" enable-background="new 0 0 430.113 430.114"
	 xml:space="preserve">
<g>
	<path id="Facebook" d="M296.982,110.883c0,6.102,0,33.338,0,33.338h-24.424v40.765h24.424v121.14h50.172V184.989h33.668
		c0,0,3.153-19.547,4.682-40.919c-4.382,0-38.16,0-38.16,0s0-23.716,0-27.873c0-4.166,5.47-9.77,10.877-9.77
		c5.397,0,16.786,0,27.336,0c0-5.55,0-24.728,0-42.439c-14.083,0-30.105,0-37.167,0C295.741,63.986,296.982,104.791,296.982,110.883
		z"/>
</g>
</svg>
