<svg xmlns="http://www.w3.org/2000/svg" xmlns:xlink="http://www.w3.org/1999/xlink" version="1.1" x="0px" y="0px" viewBox="0 0 100 125" enable-background="new 0 0 100 100" xml:space="preserve"><g><path fill="#000000" d="M50,25.205c-2.46,0-4.92,0.36-6.84,1.2l-25.92,10.62c-1.021,0.42-1.74,0.9-2.34,1.44   c-0.54,0.54-0.9,1.26-0.9,1.98c0,0.78,0.36,1.44,0.9,2.04c0.6,0.54,1.319,1.02,2.34,1.44l3.239,1.32l-3.239,1.32   c-1.021,0.42-1.74,0.84-2.34,1.44c-0.54,0.54-0.9,1.26-0.9,1.98s0.36,1.439,0.9,1.979c0.6,0.6,1.319,1.08,2.34,1.439l3.239,1.381   l-3.239,1.319c-1.021,0.36-1.74,0.84-2.34,1.44c-0.54,0.54-0.9,1.26-0.9,1.979c0,0.721,0.36,1.44,0.9,1.98   c0.6,0.6,1.319,1.02,2.34,1.439l25.92,10.681c3.899,1.56,9.779,1.56,13.68,0l25.92-10.681c1.02-0.42,1.74-0.84,2.34-1.439   c0.54-0.54,0.9-1.26,0.9-1.98c0-0.72-0.36-1.439-0.9-1.979c-0.6-0.601-1.32-1.08-2.34-1.44l-3.24-1.319l3.24-1.381   c1.02-0.359,1.74-0.84,2.34-1.439c0.54-0.54,0.9-1.259,0.9-1.979s-0.36-1.44-0.9-1.98c-0.6-0.6-1.32-1.02-2.34-1.44l-3.24-1.32   l3.24-1.32c1.02-0.42,1.74-0.9,2.34-1.44c0.54-0.6,0.9-1.26,0.9-2.04c0-0.72-0.36-1.44-0.9-1.98c-0.6-0.54-1.32-1.02-2.34-1.44   l-25.92-10.62C54.92,25.565,52.46,25.205,50,25.205L50,25.205z M50,26.825c2.279,0,4.56,0.36,6.239,1.02l25.921,10.68   c0.84,0.3,1.439,0.72,1.8,1.08c0.359,0.36,0.42,0.6,0.42,0.84c0,0.24-0.061,0.54-0.42,0.9c-0.36,0.36-0.96,0.72-1.8,1.08   l-25.921,10.62c-3.359,1.38-9.119,1.38-12.479,0l-25.92-10.62c-0.84-0.36-1.439-0.72-1.8-1.08s-0.42-0.66-0.42-0.9   c0-0.24,0.06-0.48,0.42-0.84c0.36-0.36,0.96-0.78,1.8-1.08l25.92-10.68C45.439,27.185,47.72,26.825,50,26.825L50,26.825z    M22.58,46.085l20.58,8.46c3.899,1.62,9.779,1.62,13.68,0l20.58-8.46l4.74,1.92c0.84,0.36,1.439,0.78,1.8,1.14   c0.359,0.3,0.42,0.6,0.42,0.84c0,0.24-0.061,0.54-0.42,0.9c-0.36,0.36-0.96,0.719-1.8,1.08l-25.921,10.62   c-3.359,1.38-9.119,1.38-12.479,0l-25.92-10.62c-0.84-0.36-1.439-0.72-1.8-1.08s-0.42-0.66-0.42-0.9c0-0.24,0.06-0.54,0.42-0.84   c0.36-0.36,0.96-0.78,1.8-1.14L22.58,46.085L22.58,46.085z M22.58,55.625l20.58,8.46c3.899,1.62,9.779,1.62,13.68,0l20.58-8.46   l4.74,1.92c0.84,0.359,1.439,0.72,1.8,1.08c0.359,0.359,0.42,0.66,0.42,0.899c0,0.24-0.061,0.54-0.42,0.84   c-0.36,0.36-0.96,0.78-1.8,1.141l-25.921,10.62c-3.359,1.38-9.119,1.38-12.479,0l-25.92-10.62c-0.84-0.36-1.439-0.78-1.8-1.141   c-0.36-0.3-0.42-0.6-0.42-0.84c0-0.239,0.06-0.54,0.42-0.899c0.36-0.36,0.96-0.721,1.8-1.08L22.58,55.625L22.58,55.625z"/></g><text x="0" y="115" fill="#000000" font-size="5px" font-weight="bold" font-family="'Helvetica Neue', Helvetica, Arial-Unicode, Arial, Sans-serif">Created by artworkbean</text><text x="0" y="120" fill="#000000" font-size="5px" font-weight="bold" font-family="'Helvetica Neue', Helvetica, Arial-Unicode, Arial, Sans-serif">from the Noun Project</text></svg>