<?xml version="1.0" encoding="utf-8"?>
<!-- Generator: Adobe Illustrator 17.0.0, SVG Export Plug-In . SVG Version: 6.00 Build 0)  -->
<!DOCTYPE svg PUBLIC "-//W3C//DTD SVG 1.1//EN" "http://www.w3.org/Graphics/SVG/1.1/DTD/svg11.dtd">
<svg version="1.1" id="Capa_1" xmlns="http://www.w3.org/2000/svg" xmlns:xlink="http://www.w3.org/1999/xlink" x="0px" y="0px"
	 width="90px" height="90px" viewBox="0 0 90 90" enable-background="new 0 0 90 90" xml:space="preserve">
<g>
	<path id="Github__x28_alt_x29_" d="M68.496,14.85c0.819,1.86,1.35,4.949,0.558,7.211c3.237,2.764,4.35,9.484,2.787,14.976
		c4.614,0.352,10.111-0.169,13.658,1.247c-3.317-0.426-7.846-1.263-12.124-0.972c-0.811,0.055-2.011-0.031-1.952,1.11
		c4.952,0.389,9.873,0.812,13.938,2.081c-4.033-0.659-8.928-1.663-13.938-1.802c-2.07,4.084-6.236,6.092-11.986,6.515
		c0.618,1.345,1.802,1.857,2.091,4.021c0.431,3.233-0.675,7.967,0.417,10.121c0.524,1.033,1.377,1.06,1.952,1.943
		c-1.408,1.667-4.9-0.188-5.298-1.943c-0.681-3.006,1.037-7.667-0.834-9.705c0.132,3.279-0.776,7.885,0.139,10.814
		c0.361,1.152,1.401,1.597,1.115,2.636c-6.546,0.664-3.81-8.473-4.88-13.867c-0.988,0.071-0.554,1.479-0.557,2.08
		c-0.028,5.267,1.078,12.491-4.599,11.787c-0.166-1.107,0.762-1.483,1.115-2.494c1.035-2.963-0.194-7.379,0.281-10.956
		c-2.167,1.634,0.228,7.336-1.115,10.26c-0.773,1.683-3.266,2.415-5.157,1.664c0.246-1.253,1.54-1.051,2.089-2.218
		c0.767-1.627,0.006-3.972,0.279-6.378c-4.01,0.801-7.121-0.116-8.644-2.635c-0.681-1.131-0.85-2.464-1.673-3.466
		c-0.819-1.002-2.128-1.138-2.507-2.494c4.967-1.196,5.157,5.111,9.617,5.267c1.368,0.05,2.079-0.394,3.345-0.692
		c0.354-1.59,1.112-2.777,2.23-3.607c-5.55-0.759-10.134-2.488-12.265-6.653c-5.046,0.248-9.663,0.922-13.939,1.94
		c3.882-1.41,8.669-1.915,13.8-2.081c-0.302-1.817-2.953-1.317-4.599-1.247c-3.059,0.134-6.909,0.515-9.34,0.971
		c3.524-1.257,8.469-1.1,13.243-1.11c-1.46-4.578-0.954-11.85,2.23-14.559c-0.902-2.274-0.622-5.994,0.557-7.765
		c3.555,0.16,5.711,1.71,7.945,3.19c2.77-0.787,5.683-1.18,9.478-0.971c1.596,0.088,3.256,0.806,4.458,0.692
		c1.18-0.111,2.479-1.434,3.625-1.94C65.528,15.163,66.79,14.912,68.496,14.85z"/>
</g>
</svg>
