<svg xmlns="http://www.w3.org/2000/svg" xmlns:xlink="http://www.w3.org/1999/xlink" version="1.0" x="0px" y="0px" viewBox="0 0 100 125" enable-background="new 0 0 100 100" xml:space="preserve"><g><g><path d="M79,30H60c-0.0097656,0-0.0175781,0.0048828-0.0263672,0.0058594    c-2.4365234-6.0761719-8.3759766-10.3847656-15.3115234-10.3847656c-9.0976563,0-16.5,7.4023438-16.5,16.5    c0,2.5595703,0.6035156,4.9726563,1.6533203,7.1328125L18.9472656,54.1220703    c-0.0732422,0.0732422-0.1201172,0.1611328-0.1650391,0.2490234c-0.9560547,1.2695313-0.5175781,3.3974609,1.1113281,5.0273438    c1.0615234,1.0585938,2.3388672,1.6220703,3.4521484,1.6220703c0.7089844,0,1.3515625-0.2294922,1.828125-0.7041016v-0.0009766    h0.0009766l10.4306641-10.4189453C36.3603516,50.3955078,37.1650391,50.8222656,38,51.1933594V79c0,0.5527344,0.4472656,1,1,1h40    c0.5527344,0,1-0.4472656,1-1V31C80,30.4472656,79.5527344,30,79,30z M44.6621094,21.6210938    c7.9951172,0,14.5,6.5048828,14.5,14.5c0,2.9501953-0.890625,5.6933594-2.4091797,7.9863281    c-1.1396484-1.2880859-2.7773438-2.0625-4.25-2.7548828c-0.4833984-0.2265625-0.9511719-0.4462891-1.3769531-0.6748047    c-0.5400391-0.2900391-0.9794922-0.6796875-0.4306641-2.2333984c0.5419922-1.5361328,1.0107422-3.0849609,0.8037109-5.1259766    c-0.3349609-3.2841797-3.375-5.9570313-6.7763672-5.9570313h-0.1201172c-3.4023438,0-6.4414063,2.6728516-6.7753906,5.9560547    c-0.2089844,2.0390625,0.2617188,3.5888672,0.8046875,5.1259766C39.1767578,40,38.7382813,40.3886719,38.1992188,40.6777344    c-0.4248047,0.2285156-0.8925781,0.4482422-1.3759766,0.6748047c-1.4726563,0.6923828-3.1123047,1.4658203-4.2519531,2.7548828    c-1.5185547-2.2929688-2.4091797-5.0361328-2.4091797-7.9863281    C30.1621094,28.1259766,36.6669922,21.6210938,44.6621094,21.6210938z M39.4726563,49.6347656    c-0.0634766-0.0351563-0.1279297-0.0585938-0.1982422-0.0800781c-2.0966797-0.8476563-3.9589844-2.15625-5.4394531-3.8222656    c0.8291016-1.1484375,2.3544922-1.8730469,3.8388672-2.5693359c0.5175781-0.2431641,1.0185547-0.4794922,1.4716797-0.7236328    c0.2636719-0.1416016,0.4863281-0.3046875,0.6894531-0.4785156c0.9550781,0.7744141,2.6425781,1.8408203,4.7519531,1.890625    c0.0537109,0.0019531,0.1054688,0.0019531,0.1582031,0.0019531c1.6650391,0,3.2568359-0.6396484,4.7460938-1.890625    c0.203125,0.1728516,0.4248047,0.3359375,0.6875,0.4765625c0.4550781,0.2441406,0.9560547,0.4804688,1.4736328,0.7236328    c1.484375,0.6962891,3.0078125,1.4208984,3.8369141,2.5693359c-2.6582031,2.9902344-6.5205078,4.8886719-10.8271484,4.8886719    C42.8291016,50.6210938,41.0859375,50.2597656,39.4726563,49.6347656z M48.4960938,40.1787109    c-1.2392578,1.1367188-2.5283203,1.7099609-3.8457031,1.6738281c-1.7597656-0.0361328-3.1875-1.1074219-3.8232422-1.6738281    c0.1044922-0.6923828,0.0107422-1.4882813-0.3085938-2.3994141c-0.5722656-1.6191406-0.8535156-2.7773438-0.7011719-4.2587891    c0.2285156-2.2539063,2.4199219-4.1591797,4.7851563-4.1591797h0.1201172c2.3652344,0,4.5566406,1.9052734,4.7861328,4.1591797    c0.1503906,1.4833984-0.1298828,2.6416016-0.7001953,4.2587891    C48.4873047,38.6894531,48.3925781,39.4863281,48.4960938,40.1787109z M23.7617188,58.9003906L23.7617188,58.9003906    c-0.3046875,0.3046875-1.4404297,0.0957031-2.4541016-0.9169922c-0.5029297-0.5029297-0.8652344-1.1035156-0.9941406-1.6484375    c-0.0869141-0.3632813-0.0576172-0.671875,0.0751953-0.8046875c0.0185547-0.0185547,0.0253906-0.0439453,0.0429688-0.0634766    l10.3994141-10.4003906c0.2089844,0.3222656,0.4248047,0.6386719,0.6552734,0.9453125    c0.5214844,0.6923828,1.0888672,1.3476563,1.7109375,1.9492188c0.2568359,0.2490234,0.53125,0.4785156,0.8046875,0.7109375    L23.7617188,58.9003906z M78,78H40V51.9414063c1.4794922,0.4375,3.0419922,0.6796875,4.6621094,0.6796875    c4.453125,0,8.4921875-1.78125,11.4638672-4.6582031c0.6220703-0.6025391,1.1894531-1.2578125,1.7109375-1.9501953    c2.0771484-2.7607422,3.3251953-6.1787109,3.3251953-9.8916016c0-1.4248047-0.2011719-2.8007813-0.5419922-4.1210938H78V78z"/><path d="M72,58H47c-0.5527344,0-1,0.4472656-1,1s0.4472656,1,1,1h25c0.5527344,0,1-0.4472656,1-1S72.5527344,58,72,58z"/><path d="M72,52H61c-0.5527344,0-1,0.4472656-1,1s0.4472656,1,1,1h11c0.5527344,0,1-0.4472656,1-1S72.5527344,52,72,52z"/><path d="M66,42h6c0.5527344,0,1-0.4472656,1-1s-0.4472656-1-1-1h-6c-0.5527344,0-1,0.4472656-1,1S65.4472656,42,66,42z"/><path d="M66,48h6c0.5527344,0,1-0.4472656,1-1s-0.4472656-1-1-1h-6c-0.5527344,0-1,0.4472656-1,1S65.4472656,48,66,48z"/><path d="M46,35h-1.0361328v-2c0-0.5527344-0.4472656-1-1-1s-1,0.4472656-1,1v3c0,0.5527344,0.4472656,1,1,1H46    c0.5527344,0,1-0.4472656,1-1S46.5527344,35,46,35z"/><path d="M72,64H47c-0.5527344,0-1,0.4472656-1,1s0.4472656,1,1,1h25c0.5527344,0,1-0.4472656,1-1S72.5527344,64,72,64z"/><path d="M72,70H47c-0.5527344,0-1,0.4472656-1,1s0.4472656,1,1,1h25c0.5527344,0,1-0.4472656,1-1S72.5527344,70,72,70z"/></g></g><text x="0" y="115" fill="#000000" font-size="5px" font-weight="bold" font-family="'Helvetica Neue', Helvetica, Arial-Unicode, Arial, Sans-serif">Created by Yu luck</text><text x="0" y="120" fill="#000000" font-size="5px" font-weight="bold" font-family="'Helvetica Neue', Helvetica, Arial-Unicode, Arial, Sans-serif">from the Noun Project</text></svg>