<svg xmlns="http://www.w3.org/2000/svg" xmlns:xlink="http://www.w3.org/1999/xlink" version="1.1" x="0px" y="0px" viewBox="0 0 100 125" enable-background="new 0 0 100 100" xml:space="preserve"><g><path fill="#000000" d="M61.027,26.452c2.101-4.079,6.486-6.761,11.378-6.464c0.553,0.041,1.025-0.386,1.059-0.937   c0.034-0.551-0.386-1.025-0.938-1.059c-7.67-0.477-14.315,5.368-14.784,13.013c-0.034,0.552,0.386,1.026,0.937,1.06   c0.021,0.001,0.042,0.002,0.062,0.002c0.524,0,0.965-0.408,0.997-0.938c0.058-0.938,0.234-1.838,0.496-2.7   c1.377,1.243,2.46,2.775,3.131,4.523c6.215,16.192-9.721,32.041-12.299,34.461c-3.592-0.642-26.656-5.232-31.536-17.944   c-2.35-6.121,0.748-13.023,6.904-15.387c2.918-1.121,6.108-1.067,8.978,0.15c0.507,0.214,1.095-0.021,1.312-0.53   c0.216-0.509-0.022-1.096-0.53-1.312c-3.35-1.419-7.07-1.482-10.476-0.176c-7.186,2.759-10.799,10.82-8.054,17.971   c2.402,6.259,8.811,11.411,19.046,15.312c7.516,2.865,14.237,3.928,14.519,3.972c0.051,0.008,0.103,0.012,0.153,0.012   c0.241,0,0.476-0.087,0.659-0.248c0.209-0.183,5.153-4.555,9.296-11.28c5.549-9.009,6.896-17.901,3.896-25.718   C64.359,29.96,62.909,27.978,61.027,26.452z"/><path fill="#000000" d="M36.478,69.632c-0.54-0.107-1.067,0.247-1.174,0.789c-0.74,3.771-3.294,7.427-6.831,9.782   c-0.459,0.306-0.584,0.927-0.278,1.386c0.193,0.29,0.51,0.446,0.833,0.446c0.19,0,0.383-0.054,0.553-0.168   c4.03-2.683,6.832-6.715,7.686-11.062C37.374,70.264,37.02,69.738,36.478,69.632z"/><path fill="#000000" d="M17.263,71.017c0.014,0,0.028,0,0.042-0.001c4.534-0.188,8.62-1.727,11.209-4.218   c0.398-0.383,0.41-1.017,0.027-1.414c-0.383-0.397-1.016-0.409-1.414-0.027c-2.209,2.126-5.913,3.495-9.905,3.661   c-0.552,0.022-0.98,0.489-0.958,1.041C16.287,70.596,16.729,71.017,17.263,71.017z"/><path fill="#000000" d="M64.902,27.268c0.194,0.275,0.503,0.422,0.816,0.422c0.2,0,0.401-0.06,0.577-0.185   c3.763-2.667,8.796-2.917,12.822-0.64c0.479,0.271,1.091,0.103,1.362-0.378c0.272-0.48,0.103-1.091-0.378-1.362   c-4.696-2.657-10.571-2.364-14.963,0.749C64.688,26.193,64.583,26.817,64.902,27.268z"/><path fill="#000000" d="M84.081,32.177c-3.9-3.215-9.245-4.077-13.945-2.256c-0.515,0.2-0.771,0.779-0.571,1.294   c0.2,0.515,0.781,0.769,1.294,0.571c4.026-1.562,8.606-0.822,11.951,1.934c0.186,0.153,0.411,0.229,0.635,0.229   c0.289,0,0.575-0.124,0.772-0.364C84.568,33.158,84.508,32.527,84.081,32.177z"/><path fill="#000000" d="M33.312,68.354c0.279-0.477,0.118-1.089-0.358-1.368c-0.478-0.279-1.089-0.119-1.368,0.358   c-2.925,5-8.698,8.244-15.066,8.467c-0.552,0.019-0.983,0.482-0.964,1.034c0.019,0.54,0.463,0.965,0.999,0.965   c0.012,0,0.023,0,0.036-0.001C23.636,77.563,30.044,73.94,33.312,68.354z"/><path fill="#000000" d="M40.099,42.883c0.119,0,0.24-0.021,0.357-0.066c0.517-0.197,0.774-0.775,0.576-1.291   c-2.347-6.124,0.752-13.027,6.906-15.391c2.27-0.871,4.71-1.036,7.062-0.479c0.533,0.128,1.076-0.205,1.203-0.741   c0.128-0.538-0.204-1.077-0.742-1.204c-2.738-0.651-5.591-0.46-8.24,0.557c-7.184,2.758-10.798,10.821-8.057,17.973   C39.318,42.639,39.697,42.883,40.099,42.883z"/></g><text x="0" y="115" fill="#000000" font-size="5px" font-weight="bold" font-family="'Helvetica Neue', Helvetica, Arial-Unicode, Arial, Sans-serif">Created by TrentoFuckingCity</text><text x="0" y="120" fill="#000000" font-size="5px" font-weight="bold" font-family="'Helvetica Neue', Helvetica, Arial-Unicode, Arial, Sans-serif">from the Noun Project</text></svg>