<?xml version="1.0" encoding="utf-8"?>
<!-- Generator: Adobe Illustrator 17.0.0, SVG Export Plug-In . SVG Version: 6.00 Build 0)  -->
<!DOCTYPE svg PUBLIC "-//W3C//DTD SVG 1.1//EN" "http://www.w3.org/Graphics/SVG/1.1/DTD/svg11.dtd">
<svg version="1.1" id="Capa_1" xmlns="http://www.w3.org/2000/svg" xmlns:xlink="http://www.w3.org/1999/xlink" x="0px" y="0px"
	 width="430.117px" height="430.117px" viewBox="0 0 430.117 430.117" enable-background="new 0 0 430.117 430.117"
	 xml:space="preserve">
<g>
	<path id="LinkedIn" d="M395.559,208.943v81.705h-47.367v-76.233c0-19.15-6.851-32.22-23.997-32.22
		c-13.088,0-20.877,8.808-24.304,17.328c-1.25,3.046-1.571,7.285-1.571,11.549v79.576h-47.383c0,0,0.638-129.114,0-142.491h47.379
		v20.197c-0.096,0.151-0.221,0.314-0.311,0.46h0.311v-0.46c6.295-9.695,17.536-23.545,42.699-23.545
		C372.188,144.809,395.559,165.175,395.559,208.943z M201.371,79.47c-16.21,0-26.812,10.632-26.812,24.614
		c0,13.677,10.296,24.632,26.183,24.632h0.317c16.524,0,26.8-10.953,26.8-24.632C227.547,90.102,217.582,79.47,201.371,79.47z
		 M177.373,290.648h47.365V148.157h-47.365V290.648z"/>
</g>
</svg>
