<svg xmlns="http://www.w3.org/2000/svg" xmlns:xlink="http://www.w3.org/1999/xlink" version="1.1" x="0px" y="0px" viewBox="0 0 100 125" enable-background="new 0 0 100 100" xml:space="preserve"><g><path fill="#000000" d="M58.2,25.8v-1c0,0,0.1,0,0.1,0c0.7,0.2,1.4-0.1,1.7-0.8c0.2-0.7-0.1-1.4-0.8-1.7c-5.7-2-13.4-1.9-19.1,0.1   c-0.7,0.2-1,1-0.8,1.7c0.2,0.5,0.7,0.9,1.2,0.9c0.1,0,0.2,0,0.4-0.1v0.9h-28v44.7c0,3.2,2.6,5.9,5.9,5.9h61.5   c3.2,0,5.9-2.6,5.9-5.9V25.8H58.2z M42.6,24.4c4.3-1.1,9.5-1.2,13.8-0.1v1.5H42.6V24.4z M16.8,27.6v0.9h1.4v-0.9h62.9v0.9h1.4v-0.9   h1.9v29.8H57.1c-0.3-2.2-1.7-3.9-3.4-3.9h-7.4c-1.7,0-3.1,1.7-3.4,3.9H14.6V27.6H16.8z M55.4,58.2c0,0.3,0,0.6-0.1,0.9   c-0.2,1.3-0.9,2.2-1.6,2.2h-7.4c-0.7,0-1.4-0.9-1.6-2.2c0-0.3-0.1-0.6-0.1-0.9c0-0.3,0-0.6,0.1-0.9c0.2-1.3,0.9-2.2,1.6-2.2h7.4   c0.7,0,1.4,0.9,1.6,2.2C55.4,57.6,55.4,57.9,55.4,58.2z M82.5,74v-0.2h-1.4v0.8c-0.3,0.1-0.6,0.1-0.9,0.1H18.7   c-0.2,0-0.3,0-0.5-0.1v-0.8h-1.4v0.4c-1.3-0.7-2.3-2.1-2.3-3.7V59.1h2.3V60h1.4v-0.9H43c0.3,2.2,1.7,3.9,3.4,3.9h7.4   c1.7,0,3.1-1.7,3.4-3.9h24V60h1.4v-0.9h1.9v11.5C84.3,72,83.6,73.3,82.5,74z"/><rect x="81.1" y="32" fill="#000000" width="1.4" height="3.5"/><rect x="81.1" y="39.1" fill="#000000" width="1.4" height="3.5"/><rect x="81.1" y="46.1" fill="#000000" width="1.4" height="3.5"/><polygon fill="#000000" points="82.5,53.2 81.1,53.2 81.1,54.3 80.1,54.3 80.1,55.6 82.5,55.6  "/><rect x="30" y="54.3" fill="#000000" width="3.6" height="1.4"/><rect x="37.1" y="54.3" fill="#000000" width="3.6" height="1.4"/><rect x="58.6" y="54.3" fill="#000000" width="3.6" height="1.4"/><rect x="65.7" y="54.3" fill="#000000" width="3.6" height="1.4"/><rect x="22.8" y="54.3" fill="#000000" width="3.6" height="1.4"/><rect x="72.9" y="54.3" fill="#000000" width="3.6" height="1.4"/><polygon fill="#000000" points="19.2,54.3 18.2,54.3 18.2,53.2 16.8,53.2 16.8,55.6 19.2,55.6  "/><rect x="16.8" y="32" fill="#000000" width="1.4" height="3.5"/><rect x="16.8" y="39.1" fill="#000000" width="1.4" height="3.5"/><rect x="16.8" y="46.1" fill="#000000" width="1.4" height="3.5"/><rect x="16.8" y="68.3" fill="#000000" width="1.4" height="2.8"/><rect x="16.8" y="62.7" fill="#000000" width="1.4" height="2.8"/><rect x="81.1" y="62.7" fill="#000000" width="1.4" height="2.8"/><rect x="81.1" y="68.3" fill="#000000" width="1.4" height="2.8"/></g><text x="0" y="115" fill="#000000" font-size="5px" font-weight="bold" font-family="'Helvetica Neue', Helvetica, Arial-Unicode, Arial, Sans-serif">Created by Milky - Digital innovation</text><text x="0" y="120" fill="#000000" font-size="5px" font-weight="bold" font-family="'Helvetica Neue', Helvetica, Arial-Unicode, Arial, Sans-serif">from the Noun Project</text></svg>