<?xml version="1.0" encoding="utf-8"?>
<!-- Generator: Adobe Illustrator 17.0.0, SVG Export Plug-In . SVG Version: 6.00 Build 0)  -->
<!DOCTYPE svg PUBLIC "-//W3C//DTD SVG 1.1//EN" "http://www.w3.org/Graphics/SVG/1.1/DTD/svg11.dtd">
<svg version="1.1" id="Layer_1" xmlns="http://www.w3.org/2000/svg" xmlns:xlink="http://www.w3.org/1999/xlink" x="0px" y="0px"
	 width="100px" height="100px" viewBox="0 0 100 100" enable-background="new 0 0 100 100" xml:space="preserve">
<g>
	<path d="M64.067,50.48c-0.46,0-0.834,0.374-0.834,0.833v17.8c0,1.068-1.034,1.729-1.993,1.729H31.485
		c-1.073,0-1.882-0.743-1.882-1.729V11.038c0-1.037,0.844-1.881,1.882-1.881H61.24c0.5,0,0.971,0.196,1.327,0.553
		c0.356,0.356,0.552,0.828,0.551,1.333l0.044,8.522c0.003,0.46,0.372,0.826,0.838,0.829c0.461-0.002,0.832-0.377,0.83-0.838
		l-0.044-8.517c0.001-0.945-0.368-1.835-1.039-2.507S62.186,7.49,61.24,7.49H31.485c-1.957,0-3.549,1.592-3.549,3.548v58.075
		c0,1.905,1.559,3.397,3.549,3.397H61.24c2.019,0,3.661-1.524,3.661-3.397v-17.8C64.901,50.854,64.527,50.48,64.067,50.48z"/>
	<path d="M61.352,20.47c0.46,0,0.834-0.373,0.834-0.833V12.92H30.652v50.54h31.534V51.313c0-0.46-0.374-0.833-0.834-0.833
		s-0.834,0.374-0.834,0.833v10.479H32.319V14.587h28.199v5.049C60.518,20.097,60.892,20.47,61.352,20.47z"/>
	<path d="M43.168,67.001c0,1.821,1.481,3.303,3.302,3.303c1.82,0,3.301-1.481,3.301-3.303c0-1.82-1.481-3.302-3.301-3.302
		C44.649,63.699,43.168,65.181,43.168,67.001z M48.104,67.001c0,0.901-0.733,1.635-1.634,1.635c-0.901,0-1.635-0.733-1.635-1.635
		s0.733-1.634,1.635-1.634C47.371,65.367,48.104,66.1,48.104,67.001z"/>
	<path d="M49.134,11.872c0.46,0,0.833-0.373,0.833-0.833s-0.373-0.833-0.833-0.833h-4.525c-0.46,0-0.833,0.373-0.833,0.833
		s0.373,0.833,0.833,0.833H49.134z"/>
	<path d="M62.333,21.517c-7.571,0-13.73,6.159-13.73,13.73s6.159,13.73,13.73,13.73c7.57,0,13.73-6.159,13.73-13.73
		S69.903,21.517,62.333,21.517z M62.333,47.311c-6.651,0-12.063-5.412-12.063-12.063s5.412-12.063,12.063-12.063
		s12.062,5.412,12.062,12.063S68.984,47.311,62.333,47.311z"/>
	<path d="M65.139,29.588c-0.404-0.22-0.911-0.072-1.131,0.332l-5.249,9.604c-0.221,0.404-0.072,0.911,0.332,1.131
		c0.127,0.069,0.264,0.103,0.398,0.103c0.295,0,0.581-0.157,0.732-0.434l5.249-9.604C65.691,30.315,65.543,29.809,65.139,29.588z"/>
	<path d="M71.7,34.299l-4.667-2.262c-0.413-0.201-0.912-0.027-1.113,0.386c-0.201,0.415-0.028,0.913,0.387,1.114l3.166,1.535
		l-3.185,1.641c-0.409,0.211-0.57,0.714-0.359,1.123c0.148,0.287,0.439,0.452,0.742,0.452c0.128,0,0.259-0.03,0.381-0.093
		l4.667-2.405c0.28-0.145,0.456-0.436,0.452-0.751S71.984,34.437,71.7,34.299z"/>
	<path d="M57.872,32.424c-0.199-0.413-0.696-0.59-1.113-0.386l-4.667,2.262c-0.284,0.138-0.467,0.424-0.471,0.74
		s0.172,0.606,0.452,0.751l4.667,2.405c0.122,0.062,0.253,0.093,0.381,0.093c0.303,0,0.594-0.165,0.742-0.452
		c0.211-0.409,0.05-0.912-0.359-1.123l-3.185-1.641l3.166-1.535C57.9,33.337,58.073,32.838,57.872,32.424z"/>
</g>
</svg>
