<svg xmlns="http://www.w3.org/2000/svg" xmlns:xlink="http://www.w3.org/1999/xlink" version="1.1" x="0px" y="0px" viewBox="0 0 100 125" enable-background="new 0 0 100 100" xml:space="preserve"><path fill="#000000" d="M94.487,42.836c0-0.296-0.161-0.569-0.419-0.715l-2.752-1.555l2.759-1.591  c0.256-0.147,0.414-0.422,0.412-0.718c0-0.296-0.161-0.569-0.419-0.715L62.54,19.725c-0.254-0.146-0.564-0.145-0.819,0.003  L4.901,52.489c-0.257,0.148-0.414,0.423-0.413,0.719s0.161,0.569,0.419,0.715l2.75,1.555l-2.757,1.589  c-0.257,0.147-0.414,0.423-0.413,0.718c0.001,0.296,0.161,0.569,0.419,0.715l2.751,1.555l-2.757,1.591  c-0.257,0.147-0.414,0.422-0.413,0.718s0.161,0.569,0.419,0.715l2.751,1.555l-2.758,1.591c-0.257,0.147-0.414,0.422-0.413,0.718  s0.161,0.569,0.419,0.715l31.526,17.819c0.126,0.072,0.266,0.108,0.406,0.108c0.143,0,0.285-0.037,0.413-0.111l23.499-13.549  c0.077-0.018,0.16-0.021,0.232-0.062l11.507-6.618c0.089-0.052,0.148-0.133,0.211-0.21l21.374-12.323  c0.256-0.148,0.414-0.423,0.412-0.719c0-0.296-0.161-0.569-0.419-0.715l-2.75-1.554l2.757-1.589  c0.256-0.147,0.414-0.422,0.412-0.718c0-0.296-0.161-0.569-0.419-0.715l-2.752-1.557l2.759-1.59  C94.331,43.406,94.489,43.132,94.487,42.836z M62.138,21.393l29.86,16.876l-19.965,11.51L42.187,32.896L62.138,21.393z   M6.978,53.197L29,40.5l29.857,16.874L36.835,70.071L6.978,53.197z M6.978,57.774l2.348-1.354l27.107,15.32  c0.126,0.072,0.266,0.107,0.406,0.107c0.143,0,0.285-0.037,0.413-0.111l22.495-12.969v2.673L36.835,74.65L6.978,57.774z   M6.978,62.352l2.349-1.354l27.106,15.322c0.126,0.072,0.266,0.107,0.406,0.107c0.143,0,0.285-0.037,0.413-0.111l22.495-12.97v2.672  L36.835,79.227L6.978,62.352z M36.835,83.807L6.978,66.93l2.349-1.354l27.106,15.319c0.126,0.072,0.266,0.107,0.406,0.107  c0.143,0,0.285-0.036,0.413-0.111l22.495-12.968v2.674L36.835,83.807z M91.998,52.001L72.905,63.01v-2.672l16.753-9.658  L91.998,52.001z M91.998,47.426L72.905,58.433V55.76l16.751-9.658L91.998,47.426z M72.905,53.855v-2.673l16.752-9.659l2.341,1.322  L72.905,53.855z"/><g><path fill="#000000" d="M16.503,49.738c0.545-0.313,1.14-0.565,1.787-0.754c0.645-0.188,1.258-0.322,1.844-0.401l0.447,0.818   c-0.555,0.085-1.116,0.211-1.682,0.384c-0.574,0.172-1.059,0.376-1.466,0.61c-0.703,0.405-1.146,0.842-1.329,1.312   c-0.179,0.469-0.117,0.934,0.19,1.396l4.031-2.326l0.987,0.571l-4.31,2.488c0.076,0.057,0.16,0.114,0.246,0.167   c0.086,0.061,0.184,0.115,0.29,0.18c0.204,0.117,0.407,0.219,0.609,0.305l4.292-2.481l0.961,0.558l-4.003,2.31   c0.806,0.175,1.625,0.203,2.458,0.084c0.835-0.117,1.596-0.373,2.278-0.766c0.419-0.241,0.775-0.525,1.067-0.854   c0.293-0.325,0.512-0.647,0.659-0.969l1.323,0.311c-0.14,0.338-0.371,0.693-0.698,1.067c-0.328,0.373-0.762,0.719-1.308,1.033   c-0.516,0.296-1.067,0.538-1.655,0.72c-0.588,0.185-1.188,0.308-1.8,0.376c-0.611,0.066-1.225,0.078-1.84,0.039   c-0.615-0.044-1.206-0.142-1.767-0.301l-1.169,0.676l-0.957-0.558l0.949-0.548c-0.098-0.043-0.194-0.092-0.291-0.143   c-0.097-0.05-0.196-0.107-0.305-0.169c-0.106-0.062-0.203-0.121-0.289-0.178c-0.087-0.057-0.168-0.111-0.247-0.168l-0.947,0.549   l-0.989-0.574l1.184-0.684c-0.262-0.332-0.426-0.673-0.498-1.032c-0.069-0.355-0.045-0.713,0.072-1.066   c0.12-0.355,0.335-0.699,0.647-1.037C15.587,50.346,15.994,50.033,16.503,49.738z"/></g><text x="0" y="115" fill="#000000" font-size="5px" font-weight="bold" font-family="'Helvetica Neue', Helvetica, Arial-Unicode, Arial, Sans-serif">Created by Tony Michiels</text><text x="0" y="120" fill="#000000" font-size="5px" font-weight="bold" font-family="'Helvetica Neue', Helvetica, Arial-Unicode, Arial, Sans-serif">from the Noun Project</text></svg>