<?xml version="1.0" encoding="utf-8"?>
<!-- Generator: Adobe Illustrator 17.0.0, SVG Export Plug-In . SVG Version: 6.00 Build 0)  -->
<!DOCTYPE svg PUBLIC "-//W3C//DTD SVG 1.1//EN" "http://www.w3.org/Graphics/SVG/1.1/DTD/svg11.dtd">
<svg version="1.1" id="Layer_1" xmlns="http://www.w3.org/2000/svg" xmlns:xlink="http://www.w3.org/1999/xlink" x="0px" y="0px"
	 width="100px" height="100px" viewBox="0 0 100 100" enable-background="new 0 0 100 100" xml:space="preserve">
<g>
	<g>
		<path d="M86.502,12.43l-0.062-0.509l-0.509-0.062c-6.496-0.801-14.611,1.924-22.242,7.174c-0.201,0.086-0.35,0.199-0.452,0.303
			c-0.001,0.001-0.001,0.002-0.002,0.003c-2.65,1.863-5.236,4.028-7.669,6.459c-3.411,3.413-6.302,7.137-8.581,10.948
			c-4.855,1.23-9.275,3.731-12.783,7.239c-1.275,1.276-2.44,2.699-3.46,4.229c-0.173,0.26-0.138,0.606,0.082,0.827
			c0.127,0.126,0.295,0.191,0.463,0.191c0.127,0,0.254-0.037,0.365-0.111c3.399-2.275,7.362-3.733,11.517-4.269
			c-0.159,0.465-0.333,0.931-0.472,1.394c-1.042,1.662,2.847,5.639,3.313,6.105c1.18,1.18,2.414,2.175,3.476,2.802
			c0.801,0.473,1.452,0.709,1.964,0.709c0.25,0,0.454-0.077,0.639-0.188c0.472-0.141,0.947-0.318,1.421-0.48
			c-0.536,4.154-1.994,8.117-4.269,11.517c-0.174,0.26-0.141,0.607,0.081,0.828c0.127,0.127,0.295,0.192,0.465,0.192
			c0.126,0,0.253-0.037,0.364-0.11c1.533-1.023,2.955-2.188,4.227-3.461c3.509-3.508,6.01-7.928,7.24-12.783
			c3.811-2.279,7.535-5.17,10.948-8.583C82.12,33.238,87.591,21.319,86.502,12.43z M33.792,46.358c0.43-0.5,0.877-0.984,1.338-1.445
			c3.029-3.028,6.775-5.262,10.895-6.528c-0.925,1.694-1.716,3.399-2.373,5.095C40.189,43.848,36.836,44.819,33.792,46.358z
			 M46.937,51.425c-2.138-2.138-3.038-3.814-3.12-4.396c0.582,0.083,2.259,0.983,4.396,3.12c2.138,2.137,3.038,3.813,3.12,4.396
			C50.75,54.463,49.074,53.563,46.937,51.425z M52.554,54.135c-0.101-0.414-0.285-0.88-0.612-1.436
			c-0.627-1.062-1.622-2.296-2.802-3.476c-1.18-1.18-2.414-2.175-3.476-2.802c-0.555-0.327-1.02-0.512-1.435-0.612
			c0.363-1.115,0.79-2.236,1.28-3.359c0.756,0.03,3.36,1.684,5.972,4.39c2.902,3.003,4.248,5.631,4.175,6.063
			c-0.024,0.025-0.035,0.057-0.053,0.084C54.583,53.421,53.566,53.805,52.554,54.135z M53.45,63.232
			c-0.461,0.461-0.944,0.908-1.445,1.338c1.539-3.044,2.509-6.398,2.877-9.859c1.698-0.657,3.402-1.448,5.095-2.373
			C58.712,56.458,56.479,60.204,53.45,63.232z M71.637,41.867c-4.558,4.558-9.668,8.199-14.785,10.585
			c-0.515-2.445-4.38-6.474-4.428-6.524c-2.029-2.101-4.704-4.222-6.369-4.7c2.388-5.023,5.968-10.029,10.441-14.501
			c2.466-2.466,5.09-4.641,7.771-6.504c0.03-0.005,0.062-0.012,0.114-0.012c1.009,0.001,3.379,1.368,6.168,3.901
			c-0.559,1.015-0.426,2.269,0.431,3.126c0.501,0.502,1.17,0.632,1.885,0.632c0.012,0,0.023,0,0.035,0
			c0.395,0,0.774-0.057,1.124-0.185c3.099,3.624,4.145,6.258,3.883,6.751C76.098,36.999,73.999,39.505,71.637,41.867z
			 M71.942,24.471c0.285-0.285,0.657-0.428,1.024-0.428c0.351,0,0.697,0.131,0.961,0.393c0.258,0.258,0.398,0.605,0.393,0.976
			c-0.004,0.378-0.157,0.735-0.429,1.008c-0.272,0.273-0.63,0.425-1.008,0.429c-0.396,0.056-0.719-0.134-0.977-0.393
			C71.369,25.92,71.386,25.029,71.942,24.471z M78.962,32.896c-0.643-1.82-2.302-4.116-3.892-5.993
			c0.351-0.433,0.553-0.903,0.56-1.492c0.009-0.728-0.267-1.428-0.777-1.938c-0.923-0.924-2.368-1.047-3.429-0.335
			c-1.953-1.768-4.039-3.288-5.678-3.913c6.76-4.362,13.776-6.643,19.511-6.12C85.787,18.922,83.443,26.051,78.962,32.896z"/>
		<path d="M76.258,18.229c-1.067,1.069-1.083,2.718-0.036,3.766c0.501,0.502,1.17,0.632,1.885,0.632c0.012,0,0.023,0,0.035,0
			c0.721,0,1.404-0.161,1.918-0.677c0.515-0.515,0.804-1.06,0.813-1.783c0.009-0.728-0.267-1.428-0.777-1.938
			C79.049,17.181,77.326,17.161,76.258,18.229z M79.134,21.178c-0.272,0.272-0.63,0.425-1.008,0.429
			c-0.41,0.028-0.718-0.135-0.977-0.393c-0.537-0.537-0.521-1.427,0.036-1.985c0.285-0.285,0.657-0.428,1.024-0.428
			c0.351,0,0.697,0.131,0.961,0.393c0.258,0.258,0.398,0.605,0.393,0.976C79.558,20.547,79.406,20.905,79.134,21.178z"/>
		<path d="M65.772,28.715c-1.067,1.069-1.083,2.718-0.036,3.766c0.501,0.502,1.17,0.632,1.885,0.632c0.012,0,0.023,0,0.035,0
			c0.721,0,1.404-0.161,1.918-0.677c0.515-0.515,0.804-1.06,0.813-1.783c0.009-0.728-0.267-1.428-0.777-1.938
			C68.563,27.668,66.84,27.648,65.772,28.715z M68.648,31.664c-0.272,0.272-0.63,0.425-1.008,0.429
			c-0.423,0.042-0.719-0.134-0.977-0.393c-0.537-0.537-0.521-1.427,0.036-1.985c0.285-0.285,0.657-0.428,1.024-0.428
			c0.351,0,0.697,0.131,0.961,0.393c0.258,0.258,0.398,0.605,0.393,0.976C69.072,31.034,68.92,31.391,68.648,31.664z"/>
		<path d="M44.304,53.513c-0.256-0.256-0.671-0.256-0.927,0L30.328,66.562c-0.256,0.256-0.256,0.671,0,0.927
			c0.128,0.128,0.296,0.192,0.463,0.192c0.168,0,0.336-0.064,0.463-0.192L44.304,54.44C44.56,54.183,44.56,53.769,44.304,53.513z"/>
		<path d="M44.827,54.836l-8.053,11.871c-0.203,0.3-0.126,0.707,0.174,0.91c0.112,0.077,0.24,0.113,0.367,0.113
			c0.21,0,0.416-0.101,0.543-0.287l8.053-11.871c0.203-0.3,0.126-0.707-0.174-0.91C45.44,54.459,45.031,54.536,44.827,54.836z"/>
		<path d="M30.793,61.156c0.126,0,0.252-0.036,0.364-0.111l11.52-7.726c0.301-0.201,0.381-0.608,0.179-0.909
			c-0.201-0.302-0.609-0.382-0.909-0.179l-11.52,7.726c-0.301,0.201-0.381,0.608-0.179,0.909
			C30.374,61.054,30.581,61.156,30.793,61.156z"/>
	</g>
</g>
</svg>
