<svg xmlns="http://www.w3.org/2000/svg" xmlns:xlink="http://www.w3.org/1999/xlink" version="1.1" x="0px" y="0px" viewBox="0 0 100 125" enable-background="new 0 0 100 100" xml:space="preserve"><path d="M39.741,61.039c-5.283,2.533-10.469,4.896-12.244,5.699l-8.777-12.853l4.749,1.056c0.456,0.102,0.906-0.186,1.007-0.64  c0.101-0.456-0.186-0.906-0.64-1.007l-6.834-1.519c-0.338-0.074-0.687,0.065-0.883,0.35c-0.194,0.287-0.193,0.664,0.002,0.95  l10.381,15.199c0.162,0.236,0.426,0.369,0.697,0.369c0.116,0,0.233-0.025,0.346-0.074c0.062-0.029,6.419-2.889,12.924-6.009  c0.42-0.2,0.598-0.704,0.396-1.125C40.665,61.015,40.162,60.838,39.741,61.039z"/><path d="M63.212,45.782c-0.356-0.302-0.887-0.258-1.19,0.096L45.014,65.895l1.229-8.19c0.069-0.46-0.248-0.891-0.709-0.96  c-0.461-0.069-0.891,0.248-0.959,0.709l-1.67,11.117c-0.055,0.373,0.142,0.738,0.486,0.894c0.112,0.051,0.231,0.075,0.349,0.075  c0.241,0,0.48-0.105,0.643-0.298L63.308,46.97C63.609,46.615,63.567,46.083,63.212,45.782z"/><path d="M18.476,62.727c-0.132-0.281-0.469-0.401-0.749-0.269l-2.801,1.316c-0.023,0.007-0.048,0.006-0.072,0.017l-9.098,4.275  c-0.281,0.132-0.402,0.467-0.269,0.748c0.095,0.203,0.299,0.323,0.51,0.323c0.079,0,0.162-0.017,0.239-0.053l2.805-1.318  c0.022-0.007,0.045-0.005,0.066-0.015l9.1-4.275C18.487,63.344,18.608,63.009,18.476,62.727z"/><path d="M10.982,70.757c0.096,0.204,0.298,0.323,0.509,0.323c0.08,0,0.162-0.017,0.239-0.053l9.099-4.274  c0.281-0.131,0.402-0.467,0.27-0.749c-0.133-0.28-0.468-0.401-0.749-0.269l-9.099,4.274C10.971,70.142,10.85,70.476,10.982,70.757z"/><path d="M77.503,29.707c5.425-2.95,10.097-2.871,12.658-1.812c1.455,0.6,2.412,1.552,2.768,2.75  c1.036,3.484-3.616,6.178-8.059,8.429c-4.366,2.214-9.946,4.884-18.092,8.656c-0.423,0.195-0.607,0.697-0.41,1.12  c0.196,0.423,0.697,0.606,1.119,0.411c8.166-3.781,13.762-6.459,18.146-8.683c3.904-1.977,10.438-5.289,8.913-10.415  c-0.499-1.678-1.827-3.038-3.741-3.829c-3.727-1.54-9.134-0.815-14.108,1.89c-12.26,6.668-44.734,24.293-44.734,24.293l0.804,1.483  C32.768,54.001,65.242,36.375,77.503,29.707z"/><text x="0" y="115" fill="#000000" font-size="5px" font-weight="bold" font-family="'Helvetica Neue', Helvetica, Arial-Unicode, Arial, Sans-serif">Created by António M. Garcia</text><text x="0" y="120" fill="#000000" font-size="5px" font-weight="bold" font-family="'Helvetica Neue', Helvetica, Arial-Unicode, Arial, Sans-serif">from the Noun Project</text></svg>