<?xml version="1.0" encoding="utf-8"?>
<!-- Generator: Adobe Illustrator 17.0.0, SVG Export Plug-In . SVG Version: 6.00 Build 0)  -->
<!DOCTYPE svg PUBLIC "-//W3C//DTD SVG 1.1//EN" "http://www.w3.org/Graphics/SVG/1.1/DTD/svg11.dtd">
<svg version="1.1" id="Capa_1" xmlns="http://www.w3.org/2000/svg" xmlns:xlink="http://www.w3.org/1999/xlink" x="0px" y="0px"
	 width="430.117px" height="430.117px" viewBox="0 0 430.117 430.117" enable-background="new 0 0 430.117 430.117"
	 xml:space="preserve">
<g>
	<path id="Twitter__x28_alt_x29_" d="M376.814,174.026c16.231-1.339,27.241-8.718,31.478-18.73
		c-5.855,3.597-24.03,7.518-34.068,3.784c-0.492-2.358-1.041-4.599-1.581-6.621c-7.648-28.085-33.835-50.71-61.274-47.977
		c2.22-0.896,4.472-1.731,6.716-2.48c3.02-1.082,20.741-3.965,17.95-10.22c-2.352-5.502-24.002,4.158-28.078,5.42
		c5.381-2.024,14.281-5.505,15.234-11.689c-8.244,1.131-16.337,5.029-22.591,10.696c2.258-2.43,3.97-5.392,4.334-8.58
		c-21.989,14.048-34.834,42.369-45.229,69.841c-8.162-7.91-15.397-14.14-21.887-17.599c-18.207-9.764-39.976-19.95-74.149-32.636
		c-1.049,11.306,5.592,26.34,24.726,36.337c-4.146-0.555-11.727,0.683-17.79,2.135c2.469,12.952,10.534,23.624,32.365,28.784
		c-9.977,0.658-15.133,2.929-19.807,7.822c4.544,9.008,15.633,19.61,35.58,17.434c-22.177,9.559-9.043,27.26,9.003,24.62
		c-30.784,31.797-79.319,29.46-107.189,2.865c72.767,99.155,230.946,58.64,254.519-36.865c17.661,0.151,28.044-6.118,34.481-13.028
		C399.383,179.068,384.635,177.283,376.814,174.026z"/>
</g>
</svg>
