<?xml version="1.0" encoding="utf-8"?>
<!-- Generator: Adobe Illustrator 17.0.0, SVG Export Plug-In . SVG Version: 6.00 Build 0)  -->
<!DOCTYPE svg PUBLIC "-//W3C//DTD SVG 1.1//EN" "http://www.w3.org/Graphics/SVG/1.1/DTD/svg11.dtd">
<svg version="1.1" id="Layer_1" xmlns="http://www.w3.org/2000/svg" xmlns:xlink="http://www.w3.org/1999/xlink" x="0px" y="0px"
	 width="100px" height="100px" viewBox="0 0 100 100" enable-background="new 0 0 100 100" xml:space="preserve">
<g>
	<g>
		<g>
			<path fill="#E5482E" d="M95.743,66.648l-0.32,0.143c0,0-1.002,0.448-2.755,1.232c-0.442,0.201-0.941,0.411-1.488,0.632
				c-0.536,0.234-1.115,0.483-1.746,0.726c-1.253,0.497-2.661,1.042-4.195,1.577c-1.543,0.523-3.191,1.068-4.931,1.551
				c-0.866,0.22-1.755,0.445-2.664,0.676c-0.906,0.185-1.817,0.411-2.742,0.573c-0.914,0.134-1.844,0.271-2.785,0.409
				c-0.926,0.075-1.852,0.189-2.769,0.246c-0.901-0.008-1.847,0.03-2.684,0.004c-0.748-0.102-1.35-0.134-2.154-0.192l-1.721-0.217
				l-0.859-0.109L61.5,73.844l-0.214-0.027l-0.107-0.014L61.152,73.8c1.042,0.031,0.278,0.005,0.505,0.011L61.619,73.8
				c-0.817-0.238-1.615-0.473-2.402-0.659c-0.752-0.277-1.497-0.551-2.234-0.822c-0.699-0.358-1.397-0.642-2.052-0.994
				c-0.636-0.404-1.295-0.68-1.884-1.091c-0.582-0.424-1.187-0.731-1.706-1.188c-0.527-0.431-1.068-0.785-1.538-1.229
				c-0.488-0.408-0.952-0.808-1.365-1.241c-0.853-0.817-1.6-1.616-2.211-2.349c-0.614-0.733-1.122-1.37-1.497-1.896
				c-0.373-0.528-0.631-0.89-0.768-1.113c-0.023-0.047,0.006-0.011-0.001-0.018c-0.067-0.113-0.102-0.171-0.102-0.171l-0.152-0.254
				c-0.124-0.205-0.254-0.407-0.391-0.607c-3.944-5.761-11.812-7.235-17.573-3.291c-5.761,3.944-7.235,11.812-3.291,17.573
				c0,0,0.282,0.412,0.811,1.185c0.483,0.657,1.159,1.568,2.059,2.594c0.908,1.019,2.002,2.226,3.374,3.464
				c0.685,0.62,1.408,1.282,2.222,1.921c0.402,0.323,0.814,0.655,1.236,0.995c0.443,0.314,0.896,0.636,1.359,0.965
				c0.915,0.665,1.918,1.296,2.973,1.922c1.029,0.656,2.172,1.229,3.341,1.805c2.346,1.143,4.938,2.123,7.67,2.904
				c1.373,0.365,2.799,0.627,4.216,0.923c1.436,0.211,2.893,0.363,4.347,0.522c1.459,0.064,2.928,0.053,4.385,0.056l0.068,0
				l0.559,0.015l0.027-0.003l0.107-0.013l0.215-0.026l0.43-0.052l0.86-0.103l1.722-0.207c1.485-0.219,3.166-0.519,4.694-0.829
				c1.42-0.382,2.705-0.815,4.027-1.227c1.28-0.467,2.506-0.991,3.722-1.481c1.191-0.527,2.306-1.151,3.417-1.71
				c1.089-0.595,2.111-1.237,3.123-1.834c1.002-0.607,1.915-1.297,2.823-1.921c1.776-1.305,3.391-2.574,4.786-3.85
				c2.816-2.508,4.893-4.813,6.273-6.499c0.699-0.829,1.205-1.532,1.56-2.009c0.366-0.501,0.561-0.769,0.561-0.769
				c0.614-0.846,0.775-1.992,0.317-3.015C99.055,66.649,97.267,65.966,95.743,66.648z"/>
			<path fill="#CCDC3C" d="M27.854,40.079c-1.48-0.231-2.865,0.782-3.095,2.258c-0.769,4.924-0.156,9.097,0.798,12.265
				c-6.158,4.194-5.21,11.191-5.21,11.191l8.225,2.752l8.49-3.82l5.522-5.522c0,0-4.496-8.42-12.02-6.786
				c-0.648-2.427-1.028-5.554-0.452-9.243C30.343,41.695,29.332,40.31,27.854,40.079z"/>
		</g>
		<path opacity="0.1" fill="#FFFFFF" d="M63.747,79.697c11.532,0,24.007-7.039,32.791-13.268c-0.268,0.039-0.536,0.102-0.795,0.218
			l-0.32,0.143c0,0-1.002,0.448-2.755,1.232c-0.442,0.201-0.941,0.411-1.488,0.632c-0.536,0.234-1.115,0.483-1.746,0.726
			c-1.253,0.497-2.661,1.042-4.195,1.577c-1.543,0.523-3.191,1.068-4.931,1.551c-0.866,0.22-1.755,0.445-2.664,0.676
			c-0.906,0.185-1.817,0.411-2.742,0.573c-0.914,0.134-1.844,0.271-2.785,0.409c-0.926,0.075-1.852,0.189-2.769,0.246
			c-0.901-0.008-1.847,0.03-2.684,0.004c-0.748-0.102-1.35-0.134-2.154-0.192l-1.721-0.217l-0.859-0.109L61.5,73.844l-0.214-0.027
			l-0.107-0.014L61.152,73.8c1.042,0.031,0.278,0.005,0.505,0.011L61.619,73.8c-0.817-0.238-1.615-0.473-2.402-0.659
			c-0.752-0.277-1.497-0.551-2.234-0.822c-0.699-0.358-1.397-0.642-2.052-0.994c-0.636-0.404-1.295-0.68-1.884-1.091
			c-0.582-0.424-1.187-0.731-1.706-1.188c-0.527-0.431-1.068-0.785-1.538-1.229c-0.488-0.408-0.952-0.808-1.365-1.241
			c-0.853-0.817-1.6-1.616-2.211-2.349c-0.614-0.733-1.122-1.37-1.497-1.896c-0.373-0.528-0.631-0.89-0.768-1.113
			c-0.023-0.047,0.006-0.011-0.001-0.018c-0.067-0.113-0.102-0.171-0.102-0.171l-0.152-0.254c-0.124-0.205-0.254-0.407-0.391-0.607
			c-0.231-0.337-0.478-0.656-0.734-0.964l0.002-0.002c0,0-4.496-8.42-12.02-6.786c-0.648-2.427-1.028-5.554-0.452-9.243
			c0.201-1.289-0.543-2.507-1.717-2.951C21.127,54.579,45.425,79.697,63.747,79.697z"/>
	</g>
	<g>
		<g>
			<path fill="#E5482E" d="M4.257,33.352l0.32-0.143c0,0,1.002-0.448,2.755-1.232c0.442-0.201,0.941-0.411,1.488-0.632
				c0.536-0.234,1.115-0.483,1.746-0.726c1.253-0.497,2.661-1.042,4.195-1.577c1.543-0.523,3.191-1.068,4.931-1.551
				c0.866-0.22,1.755-0.445,2.664-0.676c0.906-0.185,1.817-0.411,2.742-0.573c0.914-0.134,1.844-0.271,2.785-0.409
				c0.926-0.075,1.852-0.189,2.769-0.246c0.901,0.008,1.847-0.03,2.684-0.004c0.748,0.102,1.35,0.134,2.154,0.192l1.721,0.218
				l0.859,0.109l0.429,0.054l0.214,0.027l0.107,0.014l0.027,0.003c-1.042-0.031-0.278-0.005-0.505-0.011l0.038,0.011
				c0.817,0.238,1.615,0.473,2.402,0.659c0.752,0.277,1.497,0.551,2.234,0.822c0.699,0.358,1.397,0.642,2.052,0.994
				c0.636,0.404,1.295,0.68,1.884,1.091c0.582,0.424,1.187,0.731,1.706,1.188c0.527,0.431,1.068,0.785,1.538,1.229
				c0.488,0.408,0.952,0.808,1.365,1.241c0.853,0.817,1.6,1.616,2.211,2.349c0.614,0.733,1.122,1.37,1.497,1.896
				c0.373,0.528,0.631,0.89,0.768,1.113c0.023,0.047-0.006,0.011,0.001,0.018c0.067,0.113,0.102,0.171,0.102,0.171l0.152,0.254
				c0.124,0.205,0.254,0.407,0.391,0.607c3.944,5.761,11.812,7.235,17.573,3.291c5.761-3.944,7.235-11.812,3.291-17.573
				c0,0-0.282-0.412-0.811-1.185c-0.483-0.657-1.159-1.568-2.059-2.594c-0.908-1.019-2.002-2.226-3.374-3.464
				c-0.685-0.62-1.408-1.282-2.222-1.921c-0.402-0.323-0.814-0.655-1.236-0.995c-0.443-0.314-0.896-0.636-1.359-0.965
				c-0.915-0.665-1.918-1.296-2.973-1.922c-1.029-0.656-2.172-1.229-3.341-1.805c-2.346-1.143-4.938-2.123-7.67-2.904
				c-1.373-0.365-2.799-0.627-4.216-0.923c-1.436-0.211-2.893-0.363-4.347-0.522c-1.459-0.064-2.928-0.053-4.385-0.056l-0.068,0
				L38.927,6.28L38.9,6.283l-0.107,0.013l-0.215,0.026l-0.43,0.052l-0.86,0.103l-1.722,0.207c-1.485,0.219-3.166,0.519-4.694,0.829
				c-1.42,0.382-2.705,0.815-4.027,1.227c-1.28,0.467-2.506,0.991-3.722,1.481c-1.191,0.527-2.306,1.151-3.417,1.71
				c-1.089,0.596-2.111,1.237-3.123,1.834c-1.002,0.607-1.915,1.297-2.823,1.921c-1.776,1.305-3.391,2.574-4.786,3.85
				c-2.816,2.508-4.893,4.813-6.273,6.499c-0.699,0.829-1.205,1.532-1.56,2.009c-0.366,0.501-0.561,0.769-0.561,0.769
				c-0.614,0.846-0.775,1.992-0.317,3.015C0.945,33.351,2.733,34.034,4.257,33.352z"/>
			<path fill="#CCDC3C" d="M72.146,59.921c1.48,0.231,2.865-0.782,3.095-2.258c0.769-4.924,0.156-9.097-0.798-12.265
				c6.158-4.194,5.21-11.191,5.21-11.191l-8.225-2.752l-8.49,3.82l-5.522,5.522c0,0,4.496,8.42,12.02,6.786
				c0.648,2.427,1.028,5.554,0.452,9.243C69.657,58.305,70.668,59.69,72.146,59.921z"/>
		</g>
		<path opacity="0.05" d="M36.253,20.303c-11.532,0-24.007,7.039-32.791,13.268c0.268-0.039,0.536-0.102,0.795-0.218l0.32-0.143
			c0,0,1.002-0.448,2.755-1.232c0.442-0.201,0.941-0.411,1.488-0.632c0.536-0.234,1.115-0.483,1.746-0.726
			c1.253-0.497,2.661-1.042,4.195-1.577c1.543-0.523,3.191-1.068,4.931-1.551c0.866-0.22,1.755-0.445,2.664-0.676
			c0.906-0.185,1.817-0.411,2.742-0.573c0.914-0.134,1.844-0.271,2.785-0.409c0.926-0.075,1.852-0.189,2.769-0.246
			c0.901,0.008,1.847-0.03,2.684-0.004c0.748,0.102,1.35,0.134,2.154,0.192l1.721,0.218l0.859,0.109l0.429,0.054l0.214,0.027
			l0.107,0.014l0.027,0.003c-1.042-0.031-0.278-0.005-0.505-0.011l0.038,0.011c0.817,0.238,1.615,0.473,2.402,0.659
			c0.752,0.277,1.497,0.551,2.234,0.822c0.699,0.358,1.397,0.642,2.052,0.994c0.636,0.404,1.295,0.68,1.884,1.091
			c0.582,0.424,1.187,0.731,1.706,1.188c0.527,0.431,1.068,0.785,1.538,1.229c0.488,0.408,0.952,0.808,1.365,1.241
			c0.853,0.817,1.6,1.616,2.211,2.349c0.614,0.733,1.122,1.37,1.497,1.896c0.373,0.528,0.631,0.89,0.768,1.113
			c0.023,0.047-0.006,0.011,0.001,0.018c0.067,0.113,0.102,0.171,0.102,0.171l0.152,0.254c0.124,0.205,0.254,0.407,0.391,0.607
			c0.231,0.337,0.478,0.656,0.734,0.964l-0.002,0.002c0,0,4.496,8.42,12.02,6.786c0.648,2.427,1.028,5.554,0.452,9.243
			c-0.201,1.289,0.543,2.507,1.717,2.951C78.873,45.421,54.575,20.303,36.253,20.303z"/>
	</g>
</g>
</svg>
